<svg xmlns="http://www.w3.org/2000/svg" viewBox="0 0 269.92 442.44"><defs><style>.cls-1{fill:#0ebfff;}</style></defs><g id="Calque_2" data-name="Calque 2"><g id="Calque_1-2" data-name="Calque 1"><path class="cls-1" d="M1.5,440.94V1.5H177.23C206.82,1.5,229.61,9,245,23.77c15.56,15,23.45,37.39,23.45,66.63V353.18c0,29.16-7.89,51.39-23.46,66.08-15.26,14.39-38,21.68-67.73,21.68Zm198.58-50.79V338.06h-72v-220H69.85v272.1Zm0-65.76V52.29H69.85v52.1h72v220Z"/><path d="M177.23,3c58.27,0,89.69,29.13,89.69,87.4V353.18c0,58.27-31.42,86.26-89.69,86.26H3V3H177.23M68.35,105.89h72v220h61.22V50.79H68.35v55.1m0,285.76H201.58V336.56h-72v-220H68.35v275.1M177.23,0H0V442.44H177.23c30.08,0,53.22-7.43,68.76-22.09,15.88-15,23.93-37.58,23.93-67.17V90.4c0-59.14-32.05-90.4-92.69-90.4ZM71.35,53.79H198.58v269.1H143.36v-220h-72V53.79Zm0,65.76h55.21v220h72v49.09H71.35V119.55Z"/></g></g></svg>