<svg xmlns="http://www.w3.org/2000/svg" viewBox="0 0 600 600"><defs><style>.cls-1{fill:#ffb50e;}</style></defs><g id="Calque_2" data-name="Calque 2"><g id="Calque_1-2" data-name="Calque 1"><path class="cls-1" d="M396.1,0H0V600H396.1C528.57,600,600,561.52,600,481.42V120.16C600,40.05,528.57,0,396.1,0ZM190.63,524.52c0,4.15-3.81,7.5-8.52,7.5H76c-4.71,0-8.53-3.35-8.53-7.5V224.58c0-4.14,3.82-7.5,8.53-7.5H182.11c4.71,0,8.52,3.36,8.52,7.5ZM129.07,191.08a61.56,61.56,0,1,1,61.56-61.56A61.66,61.66,0,0,1,129.07,191.08ZM532.54,524.52A7.5,7.5,0,0,1,525,532h-93.2a7.5,7.5,0,0,1-7.5-7.51V378.69c0-40.83-3-72.06-41-72.06-34.86,0-48.44,19.48-48.44,69.49v148.4a7.5,7.5,0,0,1-7.51,7.5H234.25a7.5,7.5,0,0,1-7.5-7.5V224.58a7.5,7.5,0,0,1,7.5-7.5h89.42a7.5,7.5,0,0,1,7.5,7.5v19.48c16.81-18.31,44.53-34.43,82-34.43,105.16,0,119.34,76,119.34,150.37Z"/></g></g></svg>