<svg xmlns="http://www.w3.org/2000/svg" viewBox="0 0 600 600"><defs><style>.cls-1{fill:#ffb50e;}</style></defs><g id="Calque_2" data-name="Calque 2"><g id="Calque_1-2" data-name="Calque 1"><path class="cls-1" d="M298.16,341.86a17.7,17.7,0,0,0-17.57,17.57,17.57,17.57,0,1,0,17.57-17.57Z"/><path class="cls-1" d="M298.16,390.89a17.7,17.7,0,0,0-17.57,17.57,17.57,17.57,0,1,0,17.57-17.57Z"/><path class="cls-1" d="M298.16,292.82a17.7,17.7,0,0,0-17.57,17.57,17.57,17.57,0,1,0,17.57-17.57Z"/><path class="cls-1" d="M241.77,292.82c-9.4,0-17.16,8.17-17.57,17.57a17.57,17.57,0,1,0,17.57-17.57Z"/><path class="cls-1" d="M241.77,341.86c-9.4,0-17.16,8.17-17.57,17.57a17.57,17.57,0,1,0,17.57-17.57Z"/><path class="cls-1" d="M241.77,390.89c-9.4,0-17.16,8.18-17.57,17.57a17.57,17.57,0,1,0,17.57-17.57Z"/><path class="cls-1" d="M354.55,390.89A17.71,17.71,0,0,0,337,408.46a17.57,17.57,0,1,0,17.57-17.57Z"/><path class="cls-1" d="M354.55,341.86A17.7,17.7,0,0,0,337,359.43a17.57,17.57,0,1,0,17.57-17.57Z"/><path class="cls-1" d="M354.55,292.82A17.7,17.7,0,0,0,337,310.39a17.57,17.57,0,1,0,17.57-17.57Z"/><path class="cls-1" d="M396.1,0H0V600H396.1C528.57,600,600,561.52,600,481.42V120.16C600,40.05,528.57,0,396.1,0Zm-346,269.94c0-9-1.63-18-.41-27.79,43.73,14.3,86.22,10.22,127.91-12.67a82.08,82.08,0,0,1-6.54,42.5C156.37,304.67,50.94,315.71,50.12,269.94ZM494.3,502H104.88V444.83c2-66.6,60.88-117.27,96.44-174.89V219.27h59.25v36.37h79.68V219.27H399.5v50.67c38.41,61.7,94.8,101.75,94.8,174.08Zm55.17-232.1c-1.23,45.77-106.24,34.73-121,2a82,82,0,0,1-6.53-42.5c41.68,22.89,84.17,27,127.9,12.67C551.1,252,549.47,261,549.47,269.94ZM422,214c1.22-8.58-.82-15.53-5.32-21.25-25.74-32.28-210-33.51-233.73,1.22-3.68,5.32-5.31,11.85-4.91,19.21-42.9,26.15-86.22,32.28-129.12,15.12C84,64.4,520.46,44.78,551.1,228.67,508.61,240.52,465.29,233.57,422,214Z"/></g></g></svg>