<svg xmlns="http://www.w3.org/2000/svg" viewBox="0 0 600 600"><defs><style>.cls-1{fill:#ffb50e;}</style></defs><g id="Calque_2" data-name="Calque 2"><g id="Calque_1-2" data-name="Calque 1"><path class="cls-1" d="M396.1,0H0V600H396.1C528.57,600,600,561.52,600,481.42V120.16C600,40.05,528.57,0,396.1,0ZM550,439a25.3,25.3,0,0,1-25.27,25.26H75.27A25.28,25.28,0,0,1,50,439V181.9L285.38,333.24c.31.2.65.34,1,.52s.69.37,1,.54a27.6,27.6,0,0,0,5.63,2.2c.19.05.39.08.59.12a27.66,27.66,0,0,0,6.37.81h0a27.21,27.21,0,0,0,6.38-.81l.59-.12a27.52,27.52,0,0,0,5.62-2.2c.35-.17.7-.35,1-.54s.66-.32,1-.52L550,181.9ZM300,296.78,50,135.72H550Z"/></g></g></svg>