<svg xmlns="http://www.w3.org/2000/svg" viewBox="0 0 494.24 400.78"><defs><style>.cls-1{fill:#68eb22;}</style></defs><g id="Calque_2" data-name="Calque 2"><g id="Calque_1-2" data-name="Calque 1"><polygon class="cls-1" points="230.34 67.83 230.34 32.86 256.06 32.86 256.06 61.24 247.43 67.83 230.34 67.83"/><path d="M254.56,34.36V60.5l-7.64,5.83H231.84v-32h22.72m3-3H228.84v38h19.09l.81-.61,7.64-5.83,1.18-.9V31.36Z"/><polygon class="cls-1" points="230.34 132.79 230.34 92.18 247.97 92.18 257.07 98.1 257.07 132.79 230.34 132.79"/><path d="M247.52,93.68l8,5.23v32.38H231.84V93.68h15.68m.89-3H228.84v43.61h29.73v-37l-1.37-.89-8-5.23-.75-.49Z"/><path class="cls-1" d="M1.5,399.28V1.5H492.74V372.2a27.11,27.11,0,0,1-27.08,27.08Zm374-232.13c-16.8,0-24.29,7.77-24.29,25.19V368.09c0,17.42,7.49,25.19,24.29,25.19h86.37c17,0,24.89-8,24.89-25.19V314.71H438.46v38.38H399.17V207.34h39.29v37.48h48.28V192.34c0-17.19-7.91-25.19-24.89-25.19ZM332,393.28V167.15H284V393.28ZM153.55,167.15c-16.8,0-24.29,7.77-24.29,25.19V368.09c0,17.42,7.49,25.19,24.29,25.19h86.68c16.77,0,24.59-8,24.59-25.19V192.34c0-17.19-7.82-25.19-24.59-25.19ZM115.47,393.28V350.39h-60V167.15H7.5V393.28ZM459.8,158.15V34.87h26.94V7.5H401.66V34.87h26.95V158.15Zm-157.49-16.4c0,11.34,4.94,16.4,16,16.4H376c11.2,0,16.2-5.06,16.2-16.4V7.5H360.84V132.19H333.5V7.5H302.31Zm-30.05,16.4c11.2,0,16.2-5.06,16.2-16.4V103.94c0-9.55-2.59-14.36-9.89-18.4l-10.08-5.68,9.42-5.76c6.47-3.95,9.54-7.65,9.54-18V23.9c0-11.34-4.87-16.4-15.79-16.4H199.15V158.15Zm-84.75,0V130.78H141.45v-37h36.6V67.43h-36.6V34.87H186.9V7.5H110.26V158.15Zm-120.17,0c20.24,0,30.07-9.44,30.07-28.87V36.77C97.41,17.35,87.29,7.5,67.34,7.5H7.5V158.15Z"/><path d="M491.24,3V372.2a25.58,25.58,0,0,1-25.58,25.58H3V3H491.24M400.16,36.37h26.95V159.65H461.3V36.37h26.94V6H400.16V36.37M335,130.69V6H300.81V141.75c0,12.07,5.43,17.9,17.5,17.9H376c12.06,0,17.7-5.83,17.7-17.9V6H359.34V130.69H335m-137.35,29h74.61c12.07,0,17.7-5.83,17.7-17.9V103.94c0-10.26-3-15.48-10.66-19.71l-7.84-4.42,7.24-4.43C285.94,71,289,66.53,289,56.08V23.9C289,11.83,283.52,6,271.66,6h-74V159.65m-88.89,0H189V129.28H143v-34h36.6V65.93H143V36.37H188.4V6H108.76V159.65M6,159.65H67.34c20.51,0,31.57-9.86,31.57-30.37V36.77C98.91,16.26,87.85,6,67.34,6H6V159.65M375.48,394.78h86.37c18,0,26.39-8.7,26.39-26.69V313.2H437v38.39H400.67V208.84H437v37.48h51.28v-54c0-18-8.39-26.69-26.39-26.69H375.48c-17.7,0-25.79,8.7-25.79,26.69V368.09c0,18,8.09,26.69,25.79,26.69m-93,0h51V165.65h-51V394.78m-129,0h86.68c17.69,0,26.09-8.7,26.09-26.69V192.34c0-18-8.4-26.69-26.09-26.69H153.55c-17.69,0-25.79,8.7-25.79,26.69V368.09c0,18,8.1,26.69,25.79,26.69M6,394.78H117V348.89H57V165.65H6V394.78M494.24,0H0V400.78H465.66a28.61,28.61,0,0,0,28.58-28.58V0ZM403.16,9h82.08V33.37H458.3V156.65H430.11V33.37H403.16V9ZM362.34,9h28.39V141.75c0,10.44-4.4,14.9-14.7,14.9H318.31c-10.3,0-14.5-4.32-14.5-14.9V9H332V133.69h30.34V9ZM200.65,9h71C281.81,9,286,13.32,286,23.9V56.08c0,9.71-2.72,13-8.82,16.74l-7.24,4.43-4.36,2.66L270,82.42l7.85,4.42c6.83,3.78,9.13,8.09,9.13,17.1v37.81c0,10.44-4.4,14.9-14.7,14.9H200.65V9ZM111.76,9H185.4V33.37H140V68.93h36.6V92.29H140v40H186v24.37H111.76V9ZM9,9H67.34c9.47,0,16.67,2.31,21.4,6.85s7.17,11.62,7.17,20.92v92.51c0,18.42-9.34,27.37-28.57,27.37H9V9ZM375.48,391.78c-8,0-13.71-1.86-17.37-5.67s-5.42-9.71-5.42-18V192.34c0-8.31,1.77-14.2,5.42-18s9.34-5.67,17.37-5.67h86.37c16.18,0,23.39,7.31,23.39,23.69v51H440V205.84H397.67V354.59H440V316.2h45.28v51.89c0,16.38-7.21,23.69-23.39,23.69Zm-90-223.13h45V391.78h-45V168.65Zm-132,223.13c-8,0-13.71-1.86-17.36-5.67s-5.43-9.71-5.43-18V192.34c0-8.31,1.77-14.2,5.43-18s9.33-5.67,17.36-5.67h86.68c16,0,23.09,7.31,23.09,23.69V368.09c0,16.38-7.12,23.69-23.09,23.69ZM9,168.65H54V351.89h60v39.89H9V168.65Z"/><path class="cls-1" d="M38.69,132.19V33.46H55.07c4.7,0,10.95,1,10.95,9.75v79.23c0,8.74-6.25,9.75-10.95,9.75Z"/><path d="M55.07,35c6,0,9.45,2,9.45,8.25v79.23c0,6.24-3.42,8.25-9.45,8.25H40.19V35H55.07m0-3H37.19V133.69H55.07c8.26,0,12.45-3.78,12.45-11.25V43.21C67.52,35.74,63.33,32,55.07,32Z"/><rect class="cls-1" x="177.24" y="207.34" width="39.29" height="145.76"/><path d="M215,208.84V351.59H178.74V208.84H215m3-3H175.74V354.59H218V205.84Z"/></g></g></svg>