<svg xmlns="http://www.w3.org/2000/svg" viewBox="0 0 488.24 394.78"><defs><style>.cls-1{fill:#e5de28;}.cls-2{fill:#0ebfff;}</style></defs><g id="Calque_2" data-name="Calque 2"><g id="Calque_1-2" data-name="Calque 1"><path d="M0,0V394.78H462.66a25.58,25.58,0,0,0,25.58-25.58V159.65h0V0Z"/><path class="cls-1" d="M1.5,158.15V1.5H64.34C86,1.5,97.41,12.66,97.41,33.77v92.51c0,20.85-11.43,31.87-33.07,31.87Zm50.57-32c5.8,0,8-1.83,8-6.75V40.21c0-4.92-2.15-6.75-8-6.75H38.69v92.73Z"/><path d="M64.34,3C84.85,3,95.91,13.26,95.91,33.77v92.51c0,20.51-11.06,30.37-31.57,30.37H3V3H64.34M37.19,127.69H52.07c6,0,9.45-2,9.45-8.25V40.21C61.52,34,58.1,32,52.07,32H37.19v95.73M64.34,0H0V159.65H64.34c22.62,0,34.57-11.54,34.57-33.37V33.77c0-11-3-19.48-9-25.24S75.42,0,64.34,0ZM40.19,35H52.07c5.49,0,6.45,1.69,6.45,5.25v79.23c0,3.56-1,5.25-6.45,5.25H40.19V35Z"/><polygon class="cls-1" points="104.26 158.15 104.26 1.5 186.9 1.5 186.9 34.87 141.45 34.87 141.45 61.43 178.05 61.43 178.05 93.79 141.45 93.79 141.45 124.78 187.51 124.78 187.51 158.15 104.26 158.15"/><path d="M185.4,3V33.37H140V62.93h36.6V92.29H140v34H186v30.37H105.76V3H185.4m3-3H102.76V159.65H189V123.28H143v-28h36.6V59.93H143V36.37H188.4V0Z"/><path class="cls-1" d="M193.15,158.15V1.5h75.51c12.64,0,18.79,6.35,18.79,19.4V53.08c0,10.37-2.77,15.57-11,20.58l-5.06,3.1L277,79.92c8.21,4.55,11.42,10.44,11.42,21v37.81c0,12.87-6.46,19.4-19.2,19.4Zm57.92-31.36V96.73l-7-4.55H230.34v34.61Zm-7.66-65,6.65-5.07V32.86H230.34v29Z"/><path d="M268.66,3C280.52,3,286,8.83,286,20.9V53.08c0,10.45-3,14.88-10.25,19.3l-7.24,4.43,7.84,4.42c7.64,4.23,10.66,9.45,10.66,19.71v37.81c0,12.07-5.63,17.9-17.7,17.9H194.65V3h74M228.84,63.33h15.08l7.64-5.83V31.36H228.84v32m0,65h23.73V95.91l-8-5.23H228.84v37.61M268.66,0h-77V159.65h77.61c13.74,0,20.7-7,20.7-20.9V100.94c0-11.22-3.42-17.48-12.21-22.33l-3.37-1.91,2.88-1.76C285.89,69.67,289,64,289,53.08V20.9C289,7,282.12,0,268.66,0ZM231.84,34.36h16.72V56l-5.65,4.31H231.84v-26Zm0,59.32h11.8l5.93,3.86v27.75H231.84V93.68Z"/><path class="cls-1" d="M315.31,158.15c-12.78,0-19-6.35-19-19.4V1.5H333.5V126.19h21.34V1.5h37.39V138.75c0,13.05-6.28,19.4-19.2,19.4Z"/><path d="M390.73,3V138.75c0,12.07-5.64,17.9-17.7,17.9H315.31c-12.07,0-17.5-5.83-17.5-17.9V3H332V127.69h24.34V3h34.39m3-3H353.34V124.69H335V0H294.81V138.75c0,13.87,6.9,20.9,20.5,20.9H373c13.73,0,20.7-7,20.7-20.9V0Z"/><polygon class="cls-1" points="422.61 158.15 422.61 34.87 395.66 34.87 395.66 1.5 486.74 1.5 486.74 34.87 459.8 34.87 459.8 158.15 422.61 158.15"/><path d="M485.24,3V33.37H458.3V156.65H424.11V33.37H397.16V3h88.08m3-3H394.16V36.37h26.95V159.65H461.3V36.37h26.94V0Z"/><polygon class="cls-2" points="1.5 393.28 1.5 161.15 55.49 161.15 55.49 344.39 115.47 344.39 115.47 393.28 1.5 393.28"/><path d="M54,162.65V345.89h60v45.89H3V162.65H54m3-3H0V394.78H117V342.89H57V159.65Z"/><path class="cls-2" d="M150.55,393.28c-18.36,0-27.29-9.22-27.29-28.19V189.34c0-19,8.93-28.19,27.29-28.19h86.68c18.56,0,27.59,9.22,27.59,28.19V365.09c0,19-9,28.19-27.59,28.19Zm60-46.19V207.34H177.25V347.09Z"/><path d="M237.23,162.65c17.69,0,26.09,8.7,26.09,26.69V365.09c0,18-8.4,26.69-26.09,26.69H150.55c-17.69,0-25.79-8.7-25.79-26.69V189.34c0-18,8.1-26.69,25.79-26.69h86.68M175.74,348.59H212V205.84H175.74V348.59m61.49-188.94H150.55c-9.75,0-16.85,2.46-21.7,7.52s-7.09,12.24-7.09,22.17V365.09c0,9.93,2.32,17.18,7.09,22.17s12,7.52,21.7,7.52h86.68c19.3,0,29.09-10,29.09-29.69V189.34c0-19.7-9.79-29.69-29.09-29.69Zm-58.49,49.19H209V345.59H178.74V208.84Z"/><rect class="cls-2" x="278.01" y="161.15" width="53.99" height="232.13"/><path d="M330.49,162.65V391.78h-51V162.65h51m3-3h-57V394.78h57V159.65Z"/><path class="cls-2" d="M372.48,393.28c-18.37,0-27.29-9.22-27.29-28.19V189.34c0-19,8.92-28.19,27.29-28.19h86.37c18.77,0,27.89,9.22,27.89,28.19v55.48H432.46V207.34H399.17V347.09h33.29V308.71h54.28v56.38c0,19-9.12,28.19-27.89,28.19Z"/><path d="M458.85,162.65c18,0,26.39,8.7,26.39,26.69v54H434V205.84H397.67V348.59H434V310.2h51.28v54.89c0,18-8.39,26.69-26.39,26.69H372.48c-17.7,0-25.79-8.7-25.79-26.69V189.34c0-18,8.09-26.69,25.79-26.69h86.37m0-3H372.48c-9.75,0-16.85,2.46-21.7,7.52s-7.09,12.24-7.09,22.17V365.09c0,9.93,2.32,17.18,7.09,22.17s12,7.52,21.7,7.52h86.37c19.51,0,29.39-10,29.39-29.69V307.2H431v38.39H400.67V208.84H431v37.48h57.28v-57c0-19.7-9.88-29.69-29.39-29.69Z"/></g></g></svg>