<svg xmlns="http://www.w3.org/2000/svg" viewBox="0 0 861.62 159.65"><defs><style>.cls-1{fill:#e5de28;}.cls-2{fill:#0ebfff;}</style></defs><g id="Calque_2" data-name="Calque 2"><g id="Calque_1-2" data-name="Calque 1"><path d="M843.78,159.65H0V0H843.64a18,18,0,0,1,18,18V141.81A17.84,17.84,0,0,1,843.78,159.65Z"/><path class="cls-1" d="M1.5,158.15V1.5H64.34C86,1.5,97.41,12.66,97.41,33.77v92.51c0,20.85-11.43,31.87-33.07,31.87Zm50.57-32c5.8,0,8-1.83,8-6.75V40.21c0-4.92-2.15-6.75-8-6.75H38.69v92.73Z"/><path d="M64.34,3C84.85,3,95.91,13.26,95.91,33.77v92.51c0,20.51-11.06,30.37-31.57,30.37H3V3H64.34M37.19,127.69H52.07c6,0,9.45-2,9.45-8.25V40.21C61.52,34,58.1,32,52.07,32H37.19v95.73M64.34,0H0V159.65H64.34c22.62,0,34.57-11.54,34.57-33.37V33.77c0-11-3-19.48-9-25.24S75.42,0,64.34,0ZM40.19,35H52.07c5.49,0,6.45,1.69,6.45,5.25v79.23c0,3.56-1,5.25-6.45,5.25H40.19V35Z"/><polygon class="cls-1" points="104.26 158.15 104.26 1.5 186.9 1.5 186.9 34.87 141.45 34.87 141.45 61.43 178.05 61.43 178.05 93.79 141.45 93.79 141.45 124.78 187.51 124.78 187.51 158.15 104.26 158.15"/><path d="M185.4,3V33.37H140V62.93h36.6V92.29H140v34H186v30.37H105.76V3H185.4m3-3H102.76V159.65H189V123.28H143v-28h36.6V59.93H143V36.37H188.4V0Z"/><path class="cls-1" d="M193.15,158.15V1.5h75.51c12.65,0,18.79,6.35,18.79,19.4V53.08c0,10.37-2.77,15.57-11,20.58l-5.06,3.1L277,79.92c8.21,4.55,11.42,10.44,11.42,21v37.81c0,12.87-6.46,19.4-19.2,19.4Zm57.92-31.36V96.73l-7-4.55H230.34v34.61Zm-7.66-65,6.65-5.07V32.86H230.34v29Z"/><path d="M268.66,3C280.52,3,286,8.83,286,20.9V53.08c0,10.45-3,14.88-10.25,19.3l-7.24,4.43,7.84,4.42c7.64,4.23,10.66,9.45,10.66,19.71v37.81c0,12.07-5.63,17.9-17.7,17.9H194.65V3h74M228.84,63.33h15.08l7.64-5.83V31.36H228.84v32m0,65h23.73V95.91l-8-5.23H228.84v37.61M268.66,0h-77V159.65h77.61c13.74,0,20.7-7,20.7-20.9V100.94c0-11.22-3.42-17.48-12.21-22.33l-3.37-1.91,2.88-1.76C285.89,69.67,289,64,289,53.08V20.9C289,7,282.12,0,268.66,0ZM231.84,34.36h16.72V56l-5.65,4.31H231.84v-26Zm0,59.32h11.79l5.94,3.86v27.75H231.84V93.68Z"/><path class="cls-1" d="M315.31,158.15c-12.78,0-19-6.35-19-19.4V1.5H333.5V126.19h21.34V1.5h37.39V138.75c0,13.05-6.28,19.4-19.2,19.4Z"/><path d="M390.73,3V138.75c0,12.07-5.64,17.9-17.7,17.9H315.31c-12.07,0-17.5-5.83-17.5-17.9V3H332V127.69h24.34V3h34.39m3-3H353.34V124.69H335V0H294.81V138.75c0,13.87,6.9,20.9,20.5,20.9H373c13.73,0,20.7-7,20.7-20.9V0Z"/><polygon class="cls-1" points="422.61 158.15 422.61 34.87 395.66 34.87 395.66 1.5 486.75 1.5 486.75 34.87 459.8 34.87 459.8 158.15 422.61 158.15"/><path d="M485.24,3V33.37H458.3V156.65H424.11V33.37H397.16V3h88.08m3-3H394.16V36.37h26.95V159.65H461.3V36.37h26.94V0Z"/><polygon class="cls-2" points="533.75 158.15 533.75 1.5 570.93 1.5 570.93 124.38 611.16 124.38 611.16 158.15 533.75 158.15"/><path d="M569.43,3V125.88h40.23v30.77H535.24V3h34.19m3-3H532.24V159.65h80.42V122.88H572.43V0Z"/><path class="cls-2" d="M634.19,158.15c-12.65,0-18.8-6.35-18.8-19.4V20.9c0-13,6.15-19.4,18.8-19.4h58.12c12.6,0,19,6.53,19,19.4V138.75c0,12.87-6.4,19.4-19,19.4Zm39.73-32V33.46H652.58v92.73Z"/><path d="M692.31,3c11.86,0,17.49,5.83,17.49,17.9V138.75c0,12.07-5.63,17.9-17.49,17.9H634.19c-11.87,0-17.3-5.83-17.3-17.9V20.9c0-12.07,5.43-17.9,17.3-17.9h58.12M651.08,127.69h24.34V32H651.08v95.73M692.31,0H634.19c-13.47,0-20.3,7-20.3,20.9V138.75c0,13.87,6.83,20.9,20.3,20.9h58.12c13.41,0,20.49-7.23,20.49-20.9V20.9C712.8,7.23,705.72,0,692.31,0ZM654.08,35h18.34v89.73H654.08V35Z"/><rect class="cls-2" x="719.16" y="1.5" width="37.19" height="156.65"/><path d="M754.85,3V156.65H720.66V3h34.19m3-3H717.66V159.65h40.19V0Z"/><path class="cls-2" d="M783,158.15c-12.64,0-18.79-6.35-18.79-19.4V20.9c0-13,6.15-19.4,18.79-19.4h57.92c12.92,0,19.2,6.35,19.2,19.4V58.6H822.73V33.46H801.4v92.73h21.33V100.45h37.39v38.3c0,13.05-6.28,19.4-19.2,19.4Z"/><path d="M840.92,3c12.07,0,17.7,5.83,17.7,17.9V57.1H824.23V32H799.9v95.73h24.33V102h34.39v36.8c0,12.07-5.63,17.9-17.7,17.9H783c-11.86,0-17.29-5.83-17.29-17.9V20.9C765.71,8.83,771.14,3,783,3h57.92m0-3H783c-13.46,0-20.29,7-20.29,20.9V138.75c0,13.87,6.83,20.9,20.29,20.9h57.92c13.74,0,20.7-7,20.7-20.9V99H821.23v25.74H802.9V35h18.33V60.1h40.39V20.9c0-13.87-7-20.9-20.7-20.9Z"/></g></g></svg>