<svg xmlns="http://www.w3.org/2000/svg" viewBox="0 0 364.79 372.12"><defs><style>.cls-1{fill:#0ebfff;}</style></defs><g id="Calque_2" data-name="Calque 2"><g id="Calque_1-2" data-name="Calque 1"><path class="cls-1" d="M170.76,372.12c-8.22-3.6-10.7-10.08-9.14-18.81h50.23c1.75,9.51-.38,13.89-9.11,18.81Z"/><path class="cls-1" d="M275.11,222a111.13,111.13,0,0,1-24.54,22.18c-5.5,3.68-10.36,7.94-13.76,13.72a38.89,38.89,0,0,0-5.26,20.47c.06,7.38.12,14.78,0,22.16-.23,12.74-8.08,20.51-20.84,20.58q-23.79.13-47.6,0c-13.18-.06-20.85-7.84-21-21.11-.09-8.72.13-17.45-.33-26.15-.6-11.61-6-20.83-15.58-27.36-13.62-9.33-25.73-20.11-34.86-34C75.4,188.19,69.07,161.66,73,132.92,76.75,105,89.4,81.52,110.4,62.71A110.7,110.7,0,0,1,169.68,35c6.64-1,13.4-1.14,20.09-1.67.08,1,.2,1.28.1,1.37-6.05,5.45-6.21,7.1-1.33,13.63,3.91,5.24,7.8,10.49,11.77,15.69,2,2.66,3.41,5.39,1.4,8.63s-5.08,3.3-8.35,2.82c-7.07-1-14.14-2-21.2-3.09-5.26-.78-8.12,1.07-8.94,6.41-1.86,12.07-3.56,24.18-5.2,36.29-.58,4.3,1.73,7.08,6.23,7.76,6.94,1,13.91,1.89,20.84,3a14.88,14.88,0,0,1,6.35,2.22c3.34,2.49,2.73,7.25-1.1,10.2-5.85,4.51-11.81,8.87-17.7,13.32-4.85,3.67-5.34,6.82-1.73,11.65q10.44,14,20.94,27.89c3.36,4.44,6.63,4.87,11.16,1.52q8.76-6.48,17.44-13.07c2.58-2,5.29-3.09,8.36-1.28s3.38,4.79,2.93,8c-1.06,7.43-2.17,14.85-3.19,22.28-.62,4.48,1.31,7.42,5.73,8.1,12.56,1.94,25.14,3.69,37.72,5.47A18.4,18.4,0,0,0,275.11,222ZM139.21,73c-1.13.71-2.07,1.23-2.94,1.84C114,90.61,100.84,112,98.05,139.2c-3.08,30.08,7.13,55.36,29.17,76,8.81,8.24,19.45,13.39,30.29,18.29a38.29,38.29,0,0,1,16.92,15.42,42.47,42.47,0,0,1,6,20.65h12.65a54,54,0,0,0-6.43-25c-6.58-12.16-16.74-20.06-29.37-25.24a76.47,76.47,0,0,1-30.89-23.46c-26.7-33.32-19.54-84.56,15.32-109.16,1.35-1,2.68-1.93,4.16-3C143.54,79.92,141.44,76.56,139.21,73Zm53.84,209.92H180.56v18.62h12.49Z"/><path class="cls-1" d="M337.14,44.22,352.45,64.6c-4.74,3.57-9.42,7.12-14.11,10.63-4.9,3.67-8,8.43-8.37,14.62-.68,10.83,6.66,19.06,18.14,20.61,5.49.74,11,1.57,16.68,2.39-1.23,8.54-2.41,16.75-3.63,25.21-6.07-.85-11.8-1.63-17.51-2.44-8.52-1.22-15.44,1.58-19.93,8.88-4.33,7-3.89,14.37.82,21.18,3.51,5.07,7.35,9.91,11.31,15.22l-20.38,15.35c-3.57-4.75-7.1-9.43-10.62-14.13-3.67-4.9-8.41-8-14.62-8.36-10.89-.63-19.09,6.66-20.61,18.14-.73,5.48-1.56,11-2.36,16.58-1-.11-1.73-.15-2.43-.25L242,205c.84-6.13,1.65-12,2.45-17.81,1.14-8.37-1.66-15.17-8.82-19.62s-14.34-4-21.17.71c-5.09,3.48-9.93,7.33-15.32,11.34l-15.27-20.34c5.48-4.2,11-8,16-12.33a18.9,18.9,0,0,0-6-32.16c-3.25-1.17-6.84-1.46-10.29-2-3.91-.65-7.85-1.16-12-1.76,1.21-8.5,2.39-16.71,3.61-25.21,6.29.86,12.24,1.73,18.21,2.49,8.25,1.05,14.89-1.87,19.23-8.89s4-14.12-.56-20.86c-3.53-5.2-7.45-10.14-11.48-15.58L220.85,27.6c3.58,4.75,7.12,9.42,10.62,14.13,3.66,4.93,8.44,8,14.62,8.38,10.63.71,19-6.63,20.56-17.78.77-5.61,1.59-11.21,2.41-16.94,1.13.1,2,.14,2.77.26l22.48,3.24c-.86,6.16-1.71,12-2.49,17.84-1.12,8.37,1.72,15.17,8.9,19.58s14.35,3.92,21.16-.79C327,52,331.81,48.18,337.14,44.22ZM268.19,73.54c-20.84,0-38.44,17.57-38.42,38.4s17.73,38.46,38.5,38.33,38.14-17.52,38.24-38.24S289,73.57,268.19,73.54Z"/><path class="cls-1" d="M71.46,187c-24,4.92-33.19,23.4-33.2,38.29a38.07,38.07,0,0,0,27,36.46c14.39,4.47,34.12.22,45.25-18.83,7.86,6.46,17.64,10.64,22.22,20.67,1.1,2.39,1.17,4-.95,6-3.81,3.52-7.29,7.4-11.09,11.33-4.28-2.94-8.22-5.69-12.2-8.38-9.41-6.36-19-2.45-21.37,8.69-1,4.61-2,9.21-3.06,14.24-4.61,0-9.17.1-13.72-.12-.7,0-1.68-1.51-1.92-2.47-1.07-4.34-1.79-8.76-2.87-13.1-2.4-9.58-11.82-13.25-20.13-7.85-4.25,2.76-8.37,5.73-12.31,8.44l-11.7-11.92c2.43-3.51,5.29-7.55,8-11.66,5.87-8.79,2.17-18.28-8.06-20.72-4.12-1-8.25-2-12.42-2.64-2.2-.36-2.84-1.36-2.68-3.39.12-1.44,0-2.9,0-4.35,0-8.15,0-8.15,8.14-9.79,2.6-.52,5.23-1,7.8-1.65,8.91-2.32,12.75-11.63,7.9-19.46-2.8-4.52-6-8.81-9.46-13.91,2-1.78,4.11-3.52,6-5.47s3.48-4,5.32-6.14c4.28,2.94,8,5.17,11.39,7.89,9.82,7.94,21.43,2.56,22.7-8.8a14.26,14.26,0,0,1,.49-1.66Z"/><path class="cls-1" d="M10.63,45.18,18,34.77,62.72,66.69,55.3,77.08Z"/><path class="cls-1" d="M3.12,122.78,0,110.42,51.06,97.64c1,4.26,2,8.17,3.07,12.39Z"/><path class="cls-1" d="M77.7,0c4.38,17.15,8.68,34,13.06,51.1L78.42,54.28,65.36,3.3Z"/><path class="cls-1" d="M212.13,327.7V340H161.49V327.7Z"/><path class="cls-1" d="M344.19,303.33c-2.87,3.42-5.42,6.47-8.21,9.78l-38.27-31.89c2.72-3.27,5.3-6.39,8.15-9.81Z"/><path class="cls-1" d="M308.39,237.92h32.18c3.27,0,6.54-.12,9.79.09.88.05,2.38,1.05,2.42,1.68.24,3.58.11,7.18.11,10.92h-44.5Z"/><path class="cls-1" d="M269.91,333.44v-44H282.4v44Z"/><path class="cls-1" d="M279.08,215.8c1.22-8.17,2.31-16.35,3.71-24.49a6,6,0,0,1,6.72-4.81c3.6.34,4.88,2.44,3.52,5.75C289.53,200.72,285.23,208.72,279.08,215.8Z"/></g></g></svg>